<svg width="210" height="120" viewBox="0 0 210 120" fill="none" xmlns="http://www.w3.org/2000/svg">
<g filter="url(#filter0_d)">
<rect width="48" height="48" rx="4" transform="matrix(1 0 -0.707107 0.707107 145.941 17)" fill="white"/>
<rect x="0.292893" y="0.707107" width="46" height="46" rx="3" transform="matrix(1 0 -0.707107 0.707107 146.441 17.2071)" stroke="#081121" stroke-width="2"/>
</g>
<path d="M168.086 28.4551L152.367 40.3345H151.431C150.503 40.3345 149.846 40.2553 149.46 40.0969C149.091 39.9385 148.916 39.6727 148.938 39.2993C148.959 38.926 149.167 38.3659 149.562 37.6192L150.864 35.1415L147.234 37.6192C146.174 38.3433 145.267 38.8977 144.515 39.2823C143.762 39.667 143.035 39.9385 142.332 40.0969C141.63 40.2553 140.831 40.3345 139.935 40.3345H138.999L147.038 28.4551H150.206L143.717 37.9926C143.985 37.8681 144.383 37.6305 144.909 37.2798L156.294 29.711L152.565 37.2798C152.391 37.6305 152.313 37.8681 152.333 37.9926L164.918 28.4551H168.086Z" fill="#081121"/>
<g filter="url(#filter1_d)">
<rect width="48" height="48" rx="4" transform="matrix(1 0 -0.707107 0.707107 34.9411 63)" fill="white"/>
<rect x="0.292893" y="0.707107" width="46" height="46" rx="3" transform="matrix(1 0 -0.707107 0.707107 35.4411 63.2071)" stroke="#081121" stroke-width="2"/>
</g>
<path d="M40.9408 83.5683H34.3648L30.4706 86.3345H27.0866L40.6602 76.8649C41.627 76.1861 42.4571 75.66 43.1504 75.2867C43.8438 74.9133 44.4857 74.6475 45.0761 74.4891C45.6824 74.3307 46.3136 74.2515 46.9696 74.2515C47.6256 74.2515 48.0904 74.3307 48.3641 74.4891C48.6377 74.6475 48.7478 74.9133 48.6944 75.2867C48.6571 75.66 48.443 76.1861 48.0522 76.8649L42.6866 86.3345H39.3026L40.9408 83.5683ZM41.9787 81.7864L44.8502 76.8989C45.0324 76.6047 45.0035 76.4577 44.7635 76.4577C44.5235 76.4577 44.2004 76.6047 43.7942 76.8989L36.8907 81.7864H41.9787Z" fill="#081121"/>
<g filter="url(#filter2_d)">
<rect width="48" height="48" rx="4" transform="matrix(1 0 -0.707107 0.707107 97.9411 63)" fill="white"/>
<rect x="0.292893" y="0.707107" width="46" height="46" rx="3" transform="matrix(1 0 -0.707107 0.707107 98.4411 63.2071)" stroke="#081121" stroke-width="2"/>
</g>
<path d="M97.723 86.5382C96.571 86.5382 95.6935 86.4477 95.0905 86.2666C94.5035 86.0856 94.1044 85.8367 93.8932 85.5199C93.682 85.2032 93.5622 84.7789 93.534 84.2471L97.1547 82.9065C97.1658 83.5513 97.3396 84.0096 97.676 84.2811C98.0398 84.5413 98.6777 84.6714 99.5897 84.6714C100.854 84.6714 101.904 84.5413 102.74 84.2811C103.576 84.0209 104.283 83.6023 104.86 83.0253C105.154 82.7311 105.256 82.4935 105.165 82.3125C105.085 82.1202 104.788 81.9448 104.275 81.7864C103.777 81.628 102.968 81.4527 101.849 81.2603C100.539 81.034 99.7967 80.6324 99.6217 80.0554C99.474 79.4671 99.8867 78.6865 100.86 77.7135C101.561 77.012 102.42 76.4011 103.436 75.8807C104.469 75.3602 105.591 74.9586 106.801 74.6757C108.012 74.3929 109.234 74.2515 110.466 74.2515C112.066 74.2515 113.168 74.4212 113.773 74.7606C114.388 75.0887 114.67 75.5752 114.617 76.2201L111.095 77.5098C110.95 77.1591 110.8 76.8932 110.645 76.7122C110.517 76.5199 110.296 76.3728 109.982 76.271C109.668 76.1692 109.207 76.1182 108.599 76.1182C107.687 76.1182 106.857 76.2597 106.111 76.5425C105.364 76.8253 104.724 77.2326 104.193 77.7644C103.695 78.2622 103.623 78.6299 103.978 78.8675C104.343 79.0937 104.917 79.2804 105.698 79.4275C106.87 79.6311 107.757 79.8405 108.358 80.0554C108.959 80.2704 109.294 80.6154 109.363 81.0906C109.431 81.5658 109.053 82.2163 108.227 83.0422C107.05 84.2189 105.589 85.0957 103.844 85.6727C102.115 86.2497 100.075 86.5382 97.723 86.5382Z" fill="#081121"/>
<g filter="url(#filter3_d)">
<rect width="48" height="48" rx="4" transform="matrix(1 0 -0.707107 0.707107 160.941 63)" fill="white"/>
<rect x="0.292893" y="0.707107" width="46" height="46" rx="3" transform="matrix(1 0 -0.707107 0.707107 161.441 63.2071)" stroke="#081121" stroke-width="2"/>
</g>
<path d="M166.526 74.4551H172.766C174.654 74.4551 175.95 74.6475 176.653 75.0321C177.372 75.4168 177.542 76.039 177.162 76.8989C176.81 77.7474 175.892 78.9127 174.41 80.3948C172.928 81.8769 171.509 83.0479 170.153 83.9077C168.825 84.7563 167.416 85.3729 165.928 85.7575C164.455 86.1422 162.775 86.3345 160.887 86.3345H154.647L166.526 74.4551ZM162.753 84.4678C163.809 84.4678 164.771 84.3377 165.64 84.0774C166.508 83.8172 167.364 83.393 168.208 82.8046C169.069 82.2163 170.008 81.4131 171.026 80.3948C172.045 79.3766 172.712 78.5733 173.028 77.985C173.36 77.3967 173.353 76.9724 173.005 76.7122C172.657 76.452 171.955 76.3219 170.899 76.3219H168.043L159.897 84.4678H162.753Z" fill="#081121"/>
<defs>
<filter id="filter0_d" x="112.929" y="17" width="80.083" height="40.9411" filterUnits="userSpaceOnUse" color-interpolation-filters="sRGB">
<feFlood flood-opacity="0" result="BackgroundImageFix"/>
<feColorMatrix in="SourceAlpha" type="matrix" values="0 0 0 0 0 0 0 0 0 0 0 0 0 0 0 0 0 0 127 0"/>
<feMorphology radius="1" operator="erode" in="SourceAlpha" result="effect1_dropShadow"/>
<feOffset dy="6"/>
<feGaussianBlur stdDeviation="1"/>
<feColorMatrix type="matrix" values="0 0 0 0 1 0 0 0 0 1 0 0 0 0 1 0 0 0 0.6 0"/>
<feBlend mode="normal" in2="BackgroundImageFix" result="effect1_dropShadow"/>
<feBlend mode="normal" in="SourceGraphic" in2="effect1_dropShadow" result="shape"/>
</filter>
<filter id="filter1_d" x="1.92905" y="63" width="80.083" height="40.9411" filterUnits="userSpaceOnUse" color-interpolation-filters="sRGB">
<feFlood flood-opacity="0" result="BackgroundImageFix"/>
<feColorMatrix in="SourceAlpha" type="matrix" values="0 0 0 0 0 0 0 0 0 0 0 0 0 0 0 0 0 0 127 0"/>
<feMorphology radius="1" operator="erode" in="SourceAlpha" result="effect1_dropShadow"/>
<feOffset dy="6"/>
<feGaussianBlur stdDeviation="1"/>
<feColorMatrix type="matrix" values="0 0 0 0 1 0 0 0 0 1 0 0 0 0 1 0 0 0 0.6 0"/>
<feBlend mode="normal" in2="BackgroundImageFix" result="effect1_dropShadow"/>
<feBlend mode="normal" in="SourceGraphic" in2="effect1_dropShadow" result="shape"/>
</filter>
<filter id="filter2_d" x="64.929" y="63" width="80.083" height="40.9411" filterUnits="userSpaceOnUse" color-interpolation-filters="sRGB">
<feFlood flood-opacity="0" result="BackgroundImageFix"/>
<feColorMatrix in="SourceAlpha" type="matrix" values="0 0 0 0 0 0 0 0 0 0 0 0 0 0 0 0 0 0 127 0"/>
<feMorphology radius="1" operator="erode" in="SourceAlpha" result="effect1_dropShadow"/>
<feOffset dy="6"/>
<feGaussianBlur stdDeviation="1"/>
<feColorMatrix type="matrix" values="0 0 0 0 1 0 0 0 0 1 0 0 0 0 1 0 0 0 0.6 0"/>
<feBlend mode="normal" in2="BackgroundImageFix" result="effect1_dropShadow"/>
<feBlend mode="normal" in="SourceGraphic" in2="effect1_dropShadow" result="shape"/>
</filter>
<filter id="filter3_d" x="127.929" y="63" width="80.083" height="40.9411" filterUnits="userSpaceOnUse" color-interpolation-filters="sRGB">
<feFlood flood-opacity="0" result="BackgroundImageFix"/>
<feColorMatrix in="SourceAlpha" type="matrix" values="0 0 0 0 0 0 0 0 0 0 0 0 0 0 0 0 0 0 127 0"/>
<feMorphology radius="1" operator="erode" in="SourceAlpha" result="effect1_dropShadow"/>
<feOffset dy="6"/>
<feGaussianBlur stdDeviation="1"/>
<feColorMatrix type="matrix" values="0 0 0 0 1 0 0 0 0 1 0 0 0 0 1 0 0 0 0.6 0"/>
<feBlend mode="normal" in2="BackgroundImageFix" result="effect1_dropShadow"/>
<feBlend mode="normal" in="SourceGraphic" in2="effect1_dropShadow" result="shape"/>
</filter>
</defs>
</svg>
